<?xml version="1.0" standalone="no"?><!DOCTYPE svg PUBLIC "-//W3C//DTD SVG 1.1//EN" "http://www.w3.org/Graphics/SVG/1.1/DTD/svg11.dtd"><svg t="1687530478625" class="icon" viewBox="0 0 1024 1024" version="1.1" xmlns="http://www.w3.org/2000/svg" p-id="1477" width="20" height="20" xmlns:xlink="http://www.w3.org/1999/xlink"><path d="M829.127744 905.199929H348.567782c-42.639997 0-77.359994-36.959997-77.359994-82.479993v-399.999969a6.16 6.16 0 1 1 12.239999 0v399.999969a67.439995 67.439995 0 0 0 65.119995 69.439994h480.559962a67.439995 67.439995 0 0 0 65.119995-69.439994V256.95998a67.439995 67.439995 0 0 0-65.119995-69.439995H348.567782c-22.319998 0-51.599996 17.119999-63.999995 49.759996a6 6 0 0 1-7.999999 3.52 6.639999 6.639999 0 0 1-3.52-8.799999c15.359999-39.999997 49.919996-57.759995 75.519994-57.759996h480.559962c42.639997 0 77.359994 36.959997 77.359994 82.479994v565.839956c0 45.679996-34.719997 82.639994-77.359994 82.639993z" fill="#69494D" p-id="1478"></path><path d="M660.167758 1016.639921l-465.759964-69.759995 75.759994-574.079955 538.719958 80.639994-65.439995 495.999961c-5.6 43.279997-42.959997 73.199994-83.279993 67.199995z" fill="#F7B466" p-id="1479"></path><path d="M670.887757 1023.99992a73.759994 73.759994 0 0 1-10.959999-0.8L184.167795 951.999926a76.079994 76.079994 0 0 1-51.039996-31.999998 85.919993 85.919993 0 0 1-14.799999-61.199995l73.839994-559.999956c5.92-45.039996 45.119996-76.479994 87.359993-70.159995l475.839963 71.199995a76.079994 76.079994 0 0 1 51.039996 31.999997 85.919993 85.919993 0 0 1 15.119999 60.799995l-73.839994 559.999957a83.039994 83.039994 0 0 1-30.079998 54.399995 73.759994 73.759994 0 0 1-46.719996 16.959999zM661.527758 1010.319921a61.759995 61.759995 0 0 0 47.999996-13.279999 69.999995 69.999995 0 0 0 25.279998-45.759996l73.839994-559.999957a71.999994 71.999994 0 0 0-12.479999-51.439996 63.999995 63.999995 0 0 0-42.959997-26.959997L277.527788 241.199981a66.079995 66.079995 0 0 0-73.599995 59.119996l-73.839994 559.999956a71.999994 71.999994 0 0 0 12.799999 51.679996 63.999995 63.999995 0 0 0 42.959997 26.959998z" fill="#69494D" p-id="1480"></path><path d="M482.727771 534.159958h-0.879999l-154.639988-23.199998a6.479999 6.479999 0 0 1-5.2-7.359999 6.16 6.16 0 0 1 6.879999-5.52l154.639988 23.119998a6.479999 6.479999 0 0 1 5.2 7.36 6.24 6.24 0 0 1-6 5.599999zM655.687758 686.239946h-0.88l-343.999973-51.519996a6.479999 6.479999 0 0 1-5.2-7.359999 6.16 6.16 0 0 1 6.88-5.52l343.999973 51.519996a6.479999 6.479999 0 0 1 5.199999 7.36 6.24 6.24 0 0 1-5.999999 5.519999zM515.927769 804.799937h-0.88l-222.239983-33.279997a6.479999 6.479999 0 0 1-5.199999-7.36 6.16 6.16 0 0 1 6.879999-5.519999L516.807769 791.999938a6.479999 6.479999 0 0 1 5.199999 7.36 6.24 6.24 0 0 1-6.079999 5.439999zM689.207755 187.519985a6.32 6.32 0 0 1-6.079999-6.479999v-67.519995c0-55.439996-42.319997-100.479992-94.319993-100.479992S494.567771 58.079995 494.567771 113.519991v67.519995a6.16 6.16 0 1 1-12.239999 0v-67.519995C482.327772 50.879996 530.087768 0 588.807763 0s106.559992 50.879996 106.559992 113.519991v67.519995a6.32 6.32 0 0 1-6.16 6.479999z" fill="#69494D" p-id="1481"></path><path d="M550.167766 495.199961c-37.359997 0-67.839995-26.879998-67.839994-59.999995V148.719988a6.16 6.16 0 1 1 12.239999 0V435.199966c0 25.919998 24.959998 46.959996 55.599995 46.959996S605.527762 461.119964 605.527762 435.199966V129.19999a6.16 6.16 0 1 1 12.239999 0V435.199966c0.16 33.119997-30.239998 59.999995-67.599995 59.999995z" fill="#69494D" p-id="1482"></path></svg>